<?xml version="1.0" encoding="utf-8"?>
<!-- Generator: Adobe Illustrator 25.0.1, SVG Export Plug-In . SVG Version: 6.00 Build 0)  -->
<svg version="1.1" id="图层_1" xmlns="http://www.w3.org/2000/svg" xmlns:xlink="http://www.w3.org/1999/xlink" x="0px" y="0px"
	 viewBox="0 0 200 200" style="enable-background:new 0 0 200 200;" xml:space="preserve">
<style type="text/css">
	.st0{fill:#ED4630;}
</style>
<path class="st0" d="M184,26.6L102.4,2.1h-4.9L16,26.6c-3.3,1.6-5.7,4.9-5.7,8.2v49.8c0,52.2,32.6,94.7,87.3,112.6
	c0.8,0,1.6,0.8,2.4,0.8s1.6,0,2.4-0.8c54.7-18,87.3-59.6,87.3-112.6V34.7C189.8,31.5,187.3,28.2,184,26.6z M134.5,123.1
	c3.1,3.1,3.1,8.2,0,11.3c-1.6,1.6-3.6,2.3-5.7,2.3s-4.1-0.8-5.7-2.3L100,111.3l-23.1,23.1c-1.6,1.6-3.6,2.3-5.7,2.3
	c-2,0-4.1-0.8-5.7-2.3c-3.1-3.1-3.1-8.2,0-11.3L88.7,100L65.5,76.9c-3.1-3.1-3.1-8.2,0-11.3c3.1-3.1,8.2-3.1,11.3,0L100,88.7
	l23.1-23.1c3.1-3.1,8.2-3.1,11.3,0c3.1,3.1,3.1,8.2,0,11.3L111.3,100L134.5,123.1z"/>
</svg>
