<?xml version="1.0" encoding="utf-8"?>
<!-- Generator: Adobe Illustrator 25.0.1, SVG Export Plug-In . SVG Version: 6.00 Build 0)  -->
<svg version="1.1" id="图层_1" xmlns="http://www.w3.org/2000/svg" xmlns:xlink="http://www.w3.org/1999/xlink" x="0px" y="0px"
	 viewBox="0 0 200 200" style="enable-background:new 0 0 200 200;" xml:space="preserve">
<style type="text/css">
	.st0{fill:#5EAA2F;}
</style>
<path class="st0" d="M183.3,27.2L102.4,2.9h-4.9L16.7,27.2C13.4,28.8,11,32,11,35.3v49.4c0,51.8,32.4,93.9,86.6,111.7
	c0.8,0,1.6,0.8,2.4,0.8c0.8,0,1.6,0,2.4-0.8c54.2-17.8,86.6-59.1,86.6-111.7V35.3C189,32,186.6,28.8,183.3,27.2z M146.1,81.4
	l-48.5,48.5c-1.6,1.6-3.2,2.4-5.7,2.4c-2.4,0-4-0.8-5.7-2.4L62,105.7c-3.2-3.2-3.2-8.1,0-11.3c3.2-3.2,8.1-3.2,11.3,0l18.6,18.6
	l42.9-42.9c3.2-3.2,8.1-3.2,11.3,0C149.4,73.3,149.4,78.2,146.1,81.4L146.1,81.4z"/>
</svg>
